<?xml version="1.0" encoding="UTF-8" standalone="no"?>
<!-- Created with Inkscape (http://www.inkscape.org/) -->

<svg
   xmlns:dc="http://purl.org/dc/elements/1.1/"
   xmlns:cc="http://creativecommons.org/ns#"
   xmlns:rdf="http://www.w3.org/1999/02/22-rdf-syntax-ns#"
   xmlns:svg="http://www.w3.org/2000/svg"
   xmlns="http://www.w3.org/2000/svg"
   xmlns:sodipodi="http://sodipodi.sourceforge.net/DTD/sodipodi-0.dtd"
   xmlns:inkscape="http://www.inkscape.org/namespaces/inkscape"
   id="svg8138"
   version="1.1"
   inkscape:version="0.48.1 "
   width="387.975"
   height="626.6375"
   xml:space="preserve"
   sodipodi:docname="idaho.pdf"><metadata
     id="metadata8144"><rdf:RDF><cc:Work
         rdf:about=""><dc:format>image/svg+xml</dc:format><dc:type
           rdf:resource="http://purl.org/dc/dcmitype/StillImage" /><dc:title></dc:title></cc:Work></rdf:RDF></metadata><defs
     id="defs8142" /><sodipodi:namedview
     pagecolor="#ffffff"
     bordercolor="#666666"
     borderopacity="1"
     objecttolerance="10"
     gridtolerance="10"
     guidetolerance="10"
     inkscape:pageopacity="0"
     inkscape:pageshadow="2"
     inkscape:window-width="640"
     inkscape:window-height="480"
     id="namedview8140"
     showgrid="false"
     inkscape:zoom="0.46438331"
     inkscape:cx="193.9875"
     inkscape:cy="313.31876"
     inkscape:window-x="632"
     inkscape:window-y="119"
     inkscape:window-maximized="0"
     inkscape:current-layer="g8146" /><g
     id="g8146"
     inkscape:groupmode="layer"
     inkscape:label="idaho"
     transform="matrix(1.25,0,0,-1.25,0,626.6375)"><g
       id="g8148"
       transform="scale(0.24,0.24)"><path
         d="m 472.336,2083.95 -183.742,-705.56 -6.227,-28.1 -3.113,-40.58 -3.117,-21.85 0,-24.98 12.457,-6.24 21.801,-9.37 9.343,-15.61 9.34,-9.36 6.231,-24.98 0,-31.22 -3.114,-18.73 -9.343,-34.34 -9.344,-24.98 -49.828,-56.19 -34.254,-34.34 -24.914,-28.098 -18.688,-18.734 -12.457,-24.977 -9.34,-9.367 -12.461,-40.582 -6.226,-34.34 -6.231,-62.438 6.231,-28.097 6.226,-28.102 0,-31.215 -9.339,-15.609 -21.801,-59.32 L 5.19922,235.766 120.426,201.43 366.449,145.23 640.504,89.0391 1042.24,26.5977 1179.27,4.74609 l 9.34,46.82811 3.11,37.4649 12.46,59.3129 6.23,40.589 6.23,49.95 6.22,43.707 15.58,71.804 9.34,68.68 15.57,71.809 12.45,71.8 6.24,43.711 6.23,40.582 -18.69,-3.121 -6.23,0 -6.23,9.364 -9.34,12.488 -24.92,15.609 -6.22,3.125 -15.57,18.727 -12.46,0 -24.91,-3.117 -12.46,-9.368 -37.37,12.485 -18.69,9.367 -43.6,0 -21.8,-6.242 -9.34,-3.125 -21.799,3.125 -40.489,21.851 -28.023,21.856 -24.918,3.121 -18.684,15.609 -3.113,3.121 -18.684,37.461 -3.117,46.832 -6.226,24.977 -9.34,12.488 -9.348,18.727 -28.027,31.222 -18.688,40.586 -6.226,28.098 -9.344,9.36 -18.684,18.74 -24.914,-9.37 -9.343,0 -12.457,18.73 -21.801,21.86 -6.227,40.58 0,24.98 9.344,40.58 31.141,37.46 18.683,15.62 9.348,31.21 0,15.61 -9.348,12.49 -18.683,15.61 -24.914,12.49 -12.457,3.12 -6.231,21.85 -18.683,53.08 -9.344,21.85 -3.11,34.34 -6.23,28.1 -18.688,12.49 -3.113,9.36 -18.683,18.73 -6.231,6.25 0,6.24 9.344,46.83 0,18.73 -12.457,21.85 -6.227,6.25 0,62.43 62.285,359.03 -80.972,15.61 -77.856,12.48 -15.57,3.13 0,0 z"
         style="fill:none;stroke:#231f20;stroke-opacity:1;stroke-width:8.33333;stroke-linecap:butt;stroke-linejoin:miter;stroke-miterlimit:4;stroke-dasharray:none"
         id="path8150" /><path
         d="m 472.336,2083.95 -183.742,-705.56 -6.227,-28.1 -3.113,-40.58 -3.117,-21.85 0,-24.98 12.457,-6.24 21.801,-9.37 9.343,-15.61 9.34,-9.36 6.231,-24.98 0,-31.22 -3.114,-18.73 -9.343,-34.34 -9.344,-24.98 -49.828,-56.19 -34.254,-34.34 -24.914,-28.098 -18.688,-18.734 -12.457,-24.977 -9.34,-9.367 -12.461,-40.582 -6.226,-34.34 -6.231,-62.438 6.231,-28.097 6.226,-28.102 0,-31.215 -9.339,-15.609 -21.801,-59.32 L 5.19922,235.766 120.426,201.43 366.449,145.23 640.504,89.0391 1042.24,26.5977 1179.27,4.74609 l 9.34,46.82811 3.11,37.4649 12.46,59.3129 6.23,40.589 6.23,49.95 6.22,43.707 15.58,71.804 9.34,68.68 15.57,71.809 12.45,71.8 6.24,43.711 6.23,40.582 -18.69,-3.121 -6.23,0 -6.23,9.364 -9.34,12.488 -24.92,15.609 -6.22,3.125 -15.57,18.727 -12.46,0 -24.91,-3.117 -12.46,-9.368 -37.37,12.485 -18.69,9.367 -43.6,0 -21.8,-6.242 -9.34,-3.125 -21.799,3.125 -40.489,21.851 -28.023,21.856 -24.918,3.121 -18.684,15.609 -3.113,3.121 -18.684,37.461 -3.117,46.832 -6.226,24.977 -9.34,12.488 -9.348,18.727 -28.027,31.222 -18.688,40.586 -6.226,28.098 -9.344,9.36 -18.684,18.74 -24.914,-9.37 -9.343,0 -12.457,18.73 -21.801,21.86 -6.227,40.58 0,24.98 9.344,40.58 31.141,37.46 18.683,15.62 9.348,31.21 0,15.61 -9.348,12.49 -18.683,15.61 -24.914,12.49 -12.457,3.12 -6.231,21.85 -18.683,53.08 -9.344,21.85 -3.11,34.34 -6.23,28.1 -18.688,12.49 -3.113,9.36 -18.683,18.73 -6.231,6.25 0,6.24 9.344,46.83 0,18.73 -12.457,21.85 -6.227,6.25 0,62.43 62.285,359.03 -80.972,15.61 -77.856,12.48 -15.57,3.13 0,0 z"
         style="fill:none;stroke:#231f20;stroke-opacity:1;stroke-width:8.33333;stroke-linecap:square;stroke-linejoin:miter;stroke-miterlimit:10;stroke-dasharray:none"
         id="path8152" /></g></g></svg>